<?xml version="1.0" standalone="no"?>
<!DOCTYPE svg PUBLIC "-//W3C//DTD SVG 20010904//EN"
 "http://www.w3.org/TR/2001/REC-SVG-20010904/DTD/svg10.dtd">
<svg version="1.0" xmlns="http://www.w3.org/2000/svg"
 width="400.000000pt" height="400.000000pt" viewBox="0 0 400.000000 400.000000"
 preserveAspectRatio="xMidYMid meet">
<metadata>
Created by potrace 1.14, written by Peter Selinger 2001-2017
</metadata>
<g transform="translate(0.000000,400.000000) scale(0.100000,-0.100000)"
fill="#000000" stroke="none">
<path d="M3448 2520 c-95 -12 -134 -50 -145 -139 l-6 -51 -38 0 c-58 0 -83
-35 -59 -81 8 -14 21 -19 55 -19 l45 0 0 -110 0 -110 -45 0 c-34 0 -47 -5 -55
-19 -14 -27 -13 -47 6 -65 13 -13 43 -16 170 -16 88 0 164 4 175 10 22 12 26
59 7 78 -7 7 -39 12 -75 12 l-63 0 0 110 0 110 70 0 c58 0 71 3 80 19 28 54 0
81 -86 81 l-64 0 0 33 c0 54 24 68 110 66 61 -2 75 1 87 16 7 11 13 22 13 27
0 19 -42 48 -69 48 -16 0 -35 2 -43 4 -7 2 -39 0 -70 -4z"/>
<path d="M1410 2494 c-12 -30 9 -74 35 -74 13 0 15 -31 15 -204 l0 -204 -24
-6 c-30 -7 -40 -43 -20 -73 13 -21 22 -23 104 -23 91 0 120 11 120 46 0 27
-20 54 -40 54 -18 0 -20 7 -20 90 0 84 2 92 28 120 29 33 82 44 104 22 14 -14
27 -90 27 -164 1 -53 -1 -58 -26 -70 -31 -15 -43 -59 -22 -84 14 -17 169 -20
200 -4 37 20 19 90 -23 90 -16 0 -18 11 -18 113 -1 174 -35 227 -150 227 -53
0 -109 -21 -112 -43 -1 -6 -4 38 -7 98 l-6 110 -78 3 c-76 3 -77 2 -87 -24z"/>
<path d="M2652 2508 c-17 -17 -15 -53 4 -72 9 -9 32 -16 55 -16 l39 0 0 -205
0 -205 -70 0 c-58 0 -71 -3 -80 -19 -14 -27 -13 -47 6 -65 23 -24 385 -24 408
0 19 18 20 38 6 65 -9 16 -22 19 -80 19 l-70 0 -2 253 -3 252 -100 3 c-70 2
-104 -1 -113 -10z"/>
<path d="M981 2467 c-84 -27 -140 -120 -121 -202 14 -62 60 -98 161 -124 130
-34 149 -44 149 -84 0 -49 -25 -67 -94 -67 -55 0 -61 2 -95 38 -20 21 -44 51
-54 65 -20 30 -48 35 -71 11 -18 -18 -22 -136 -6 -178 8 -21 16 -26 44 -26 19
0 37 4 41 9 3 6 18 6 38 0 56 -16 188 -11 232 10 94 43 132 143 87 231 -25 50
-70 75 -175 100 -51 12 -100 29 -109 37 -41 37 -9 91 59 99 48 6 81 -11 112
-59 22 -34 29 -38 60 -35 l36 3 3 70 c4 96 -2 115 -36 115 -15 0 -33 -5 -39
-11 -8 -8 -22 -8 -49 0 -48 13 -128 13 -173 -2z"/>
<path d="M390 2329 c-90 -41 -134 -108 -134 -204 0 -75 29 -134 86 -175 56
-41 109 -53 198 -47 120 8 190 47 190 107 0 42 -32 48 -100 16 -63 -30 -154
-35 -199 -12 -15 8 -35 30 -44 48 l-16 33 171 3 c106 1 177 7 185 13 18 15 16
74 -3 115 -22 46 -85 100 -131 113 -62 18 -153 13 -203 -10z m180 -84 c28 -15
50 -42 50 -64 0 -7 -43 -11 -124 -11 -119 0 -124 1 -119 20 3 11 19 31 35 45
35 30 111 34 158 10z"/>
<path d="M2137 2336 c-94 -34 -147 -110 -147 -210 0 -145 114 -235 284 -224
126 8 214 66 188 123 -15 31 -36 31 -104 0 -39 -18 -70 -25 -116 -25 -59 0
-66 2 -98 34 -63 63 -56 66 134 66 92 0 173 4 181 9 24 15 15 90 -17 140 -40
65 -112 101 -201 101 -36 -1 -83 -7 -104 -14z m188 -106 c14 -13 25 -32 25
-42 0 -16 -10 -18 -120 -18 -123 0 -130 2 -110 40 29 55 155 67 205 20z"/>
</g>
</svg>
