<?xml version="1.0" standalone="no"?>
<!DOCTYPE svg PUBLIC "-//W3C//DTD SVG 20010904//EN"
 "http://www.w3.org/TR/2001/REC-SVG-20010904/DTD/svg10.dtd">
<svg version="1.0" xmlns="http://www.w3.org/2000/svg"
 width="200.000000pt" height="200.000000pt" viewBox="0 0 200.000000 200.000000"
 preserveAspectRatio="xMidYMid meet">
<metadata>
Created by potrace 1.14, written by Peter Selinger 2001-2017
</metadata>
<g transform="translate(0.000000,200.000000) scale(0.100000,-0.100000)"
fill="#000000" stroke="none">
<path d="M1840 1374 c-61 -22 -90 -63 -90 -128 0 -34 -2 -36 -31 -36 -26 0
-30 -3 -27 -22 2 -17 11 -24 31 -26 l27 -3 0 -133 c0 -136 -5 -156 -42 -156
-11 0 -18 -7 -18 -20 0 -19 7 -20 110 -20 103 0 110 1 110 20 0 14 -7 20 -23
20 -42 0 -47 16 -47 157 l0 133 40 0 c36 0 40 3 40 25 0 23 -4 25 -40 25 -40
0 -40 0 -40 38 0 79 28 109 52 57 12 -27 45 -34 66 -13 18 18 14 56 -7 67 -24
13 -91 22 -111 15z"/>
<path d="M740 1352 c0 -9 10 -22 23 -27 22 -10 22 -12 22 -225 0 -213 0 -215
-22 -225 -13 -5 -23 -18 -23 -27 0 -16 11 -18 89 -18 100 0 120 11 78 42 -26
19 -27 23 -27 117 0 54 5 112 11 129 13 38 45 51 68 28 13 -14 17 -44 19 -166
l3 -150 65 0 c54 0 64 3 64 18 0 9 -9 23 -20 30 -18 11 -20 23 -20 138 0 167
-19 204 -105 204 -25 0 -43 -8 -60 -25 l-25 -24 0 99 0 100 -70 0 c-60 0 -70
-2 -70 -18z"/>
<path d="M1480 1352 c0 -9 10 -22 23 -27 22 -10 22 -12 22 -225 0 -213 0 -215
-22 -225 -13 -5 -23 -18 -23 -27 0 -16 11 -18 95 -18 84 0 95 2 95 18 0 9 -10
22 -22 27 -23 10 -23 12 -26 253 l-2 242 -70 0 c-60 0 -70 -2 -70 -18z"/>
<path d="M473 1321 c-41 -26 -63 -69 -63 -124 0 -59 32 -104 100 -143 108 -62
136 -112 90 -162 -44 -46 -116 -18 -126 49 -8 48 -28 59 -56 31 -49 -48 -10
-125 72 -143 126 -28 228 64 206 186 -9 44 -47 82 -125 123 -66 36 -81 54 -81
101 0 36 37 66 70 56 21 -7 50 -52 50 -80 0 -19 19 -19 48 1 27 19 29 63 3 95
-27 33 -141 39 -188 10z"/>
<path d="M1233 1200 c-18 -10 -42 -38 -54 -61 -29 -57 -25 -203 7 -245 38 -51
70 -68 129 -68 78 0 130 42 111 90 -5 13 -11 11 -37 -10 -59 -50 -121 -22
-135 61 l-6 42 98 3 99 3 -3 55 c-2 30 -10 67 -18 83 -33 63 -128 86 -191 47z
m107 -56 c6 -14 10 -39 10 -55 0 -28 -1 -29 -51 -29 l-51 0 7 37 c10 55 23 73
51 73 17 0 27 -8 34 -26z"/>
<path d="M156 1179 c-44 -35 -59 -76 -59 -164 -1 -128 42 -185 137 -185 58 0
96 24 96 61 l0 20 -29 -20 c-32 -23 -71 -27 -103 -10 -23 12 -48 66 -48 104
l0 25 101 0 102 0 -6 55 c-6 63 -30 109 -64 124 -39 18 -98 13 -127 -10z m103
-26 c12 -11 23 -36 27 -60 l7 -43 -72 0 c-79 0 -82 4 -57 64 22 54 59 69 95
39z"/>
</g>
</svg>
