<?xml version="1.0" standalone="no"?>
<!DOCTYPE svg PUBLIC "-//W3C//DTD SVG 20010904//EN"
 "http://www.w3.org/TR/2001/REC-SVG-20010904/DTD/svg10.dtd">
<svg version="1.0" xmlns="http://www.w3.org/2000/svg"
 width="500.000000pt" height="500.000000pt" viewBox="0 0 500.000000 500.000000"
 preserveAspectRatio="xMidYMid meet">
<metadata>
Created by potrace 1.14, written by Peter Selinger 2001-2017
</metadata>
<g transform="translate(0.000000,500.000000) scale(0.100000,-0.100000)"
fill="#000000" stroke="none">
<path d="M4277 2999 c-34 -4 -70 -15 -85 -26 -36 -26 -62 -79 -62 -125 0 -37
-1 -38 -39 -38 -44 0 -71 -20 -71 -54 0 -33 19 -46 67 -46 l43 0 0 -110 0
-110 -43 0 c-48 0 -67 -13 -67 -46 0 -49 19 -54 190 -54 131 0 161 3 174 16
19 18 20 38 6 65 -9 16 -22 19 -75 19 l-65 0 0 110 0 110 70 0 c67 0 71 1 81
26 7 20 6 32 -6 50 -14 21 -23 24 -80 24 l-65 0 0 33 c0 53 25 68 107 66 39
-1 76 1 82 5 15 10 14 63 -1 73 -22 13 -100 19 -161 12z"/>
<path d="M2240 2979 c-17 -30 -4 -68 25 -75 l25 -6 0 -204 c0 -196 -1 -204
-20 -204 -20 0 -40 -27 -40 -54 0 -35 29 -46 119 -46 97 0 111 7 111 57 0 26
-5 34 -25 39 -24 6 -25 9 -25 91 0 97 16 139 58 150 76 20 92 -3 92 -133 0
-100 0 -102 -25 -108 -20 -5 -25 -13 -25 -39 0 -50 14 -57 111 -57 90 0 119
11 119 46 0 27 -20 54 -40 54 -19 0 -20 7 -20 103 0 123 -10 164 -50 202 -41
39 -132 48 -184 17 l-35 -21 -3 102 -3 102 -77 3 c-70 3 -78 1 -88 -19z"/>
<path d="M3482 2988 c-6 -6 -12 -24 -12 -40 0 -33 24 -48 74 -48 l36 0 0 -205
0 -205 -68 0 c-40 0 -73 -5 -80 -12 -19 -19 -15 -66 7 -78 29 -15 384 -13 399
2 18 18 15 75 -4 82 -9 3 -42 6 -75 6 l-59 0 -2 253 -3 252 -100 3 c-70 2
-104 -1 -113 -10z"/>
<path d="M1806 2945 c-82 -29 -136 -114 -121 -193 14 -75 54 -103 203 -142 93
-25 112 -39 112 -80 0 -39 -32 -60 -93 -60 -60 0 -102 21 -123 63 -34 67 -66
83 -98 51 -19 -18 -23 -153 -6 -185 11 -20 74 -28 85 -10 3 6 18 6 38 0 51
-14 183 -11 224 6 50 21 72 42 94 90 23 51 23 89 0 141 -24 53 -67 79 -175
104 -112 26 -126 34 -126 69 0 36 29 62 77 67 48 6 81 -11 112 -59 26 -39 64
-50 89 -25 16 16 16 150 0 166 -15 15 -50 16 -65 1 -8 -8 -22 -8 -49 0 -53 15
-131 13 -178 -4z"/>
<path d="M640 2809 c-90 -41 -134 -108 -134 -204 0 -75 29 -134 86 -175 56
-41 109 -53 198 -47 120 8 190 47 190 107 0 42 -32 48 -100 16 -63 -30 -154
-35 -199 -12 -15 8 -35 30 -44 48 l-16 33 171 3 c106 1 177 7 185 13 18 15 16
74 -3 115 -22 46 -85 100 -131 113 -62 18 -153 13 -203 -10z m180 -84 c28 -15
50 -42 50 -64 0 -7 -43 -11 -124 -11 -119 0 -124 1 -119 20 3 11 19 31 35 45
35 30 111 34 158 10z"/>
<path d="M2960 2814 c-96 -41 -143 -111 -144 -210 0 -135 103 -224 258 -224
127 0 220 49 214 113 -4 42 -25 45 -98 13 -105 -47 -211 -31 -244 38 l-15 31
171 3 c106 1 177 7 185 13 17 15 17 71 0 112 -19 44 -87 103 -134 116 -54 15
-152 13 -193 -5z m170 -89 c28 -15 50 -42 50 -64 0 -7 -42 -11 -120 -11 -91 0
-120 3 -120 13 0 20 30 58 54 67 34 14 105 11 136 -5z"/>
<path d="M1114 2646 c-3 -8 -4 -31 -2 -52 l3 -39 210 0 210 0 0 50 0 50 -208
3 c-171 2 -208 0 -213 -12z"/>
</g>
</svg>
